<svg width="73" height="73" viewBox="0 0 73 73" fill="none" xmlns="http://www.w3.org/2000/svg">
<path d="M69 37C69 54.6731 54.6731 69 37 69C19.3269 69 5 54.6731 5 37C5 19.3269 19.3269 5 37 5C54.6731 5 69 19.3269 69 37Z" fill="#282727"/>
<path d="M49.7071 37.7071C50.0976 37.3166 50.0976 36.6834 49.7071 36.2929L43.3431 29.9289C42.9526 29.5384 42.3195 29.5384 41.9289 29.9289C41.5384 30.3195 41.5384 30.9526 41.9289 31.3431L47.5858 37L41.9289 42.6569C41.5384 43.0474 41.5384 43.6805 41.9289 44.0711C42.3195 44.4616 42.9526 44.4616 43.3431 44.0711L49.7071 37.7071ZM22 38H35.5V36H22V38ZM35.5 38L49 38V36L35.5 36V38Z" fill="#FDFDFD"/>
</svg>
