<svg width="36" height="42" viewBox="0 0 36 42" fill="none" xmlns="http://www.w3.org/2000/svg">
<g clip-path="url(#clip0_91_699)">
<path d="M35.0357 38.9423H33.4286V1.94712C33.4286 0.87174 32.5651 0 31.5 0H4.5C3.43487 0 2.57143 0.87174 2.57143 1.94712V38.9423H0.964286C0.431759 38.9423 0 39.3782 0 39.9159V41.5385H36V39.9159C36 39.3782 35.5682 38.9423 35.0357 38.9423ZM10.2857 6.16587C10.2857 5.62822 10.7175 5.19231 11.25 5.19231H14.4643C14.9968 5.19231 15.4286 5.62822 15.4286 6.16587V9.41106C15.4286 9.9487 14.9968 10.3846 14.4643 10.3846H11.25C10.7175 10.3846 10.2857 9.9487 10.2857 9.41106V6.16587ZM10.2857 13.9543C10.2857 13.4167 10.7175 12.9808 11.25 12.9808H14.4643C14.9968 12.9808 15.4286 13.4167 15.4286 13.9543V17.1995C15.4286 17.7372 14.9968 18.1731 14.4643 18.1731H11.25C10.7175 18.1731 10.2857 17.7372 10.2857 17.1995V13.9543ZM14.4643 25.9615H11.25C10.7175 25.9615 10.2857 25.5256 10.2857 24.988V21.7428C10.2857 21.2051 10.7175 20.7692 11.25 20.7692H14.4643C14.9968 20.7692 15.4286 21.2051 15.4286 21.7428V24.988C15.4286 25.5256 14.9968 25.9615 14.4643 25.9615ZM20.5714 38.9423H15.4286V32.1274C15.4286 31.5898 15.8603 31.1538 16.3929 31.1538H19.6071C20.1397 31.1538 20.5714 31.5898 20.5714 32.1274V38.9423ZM25.7143 24.988C25.7143 25.5256 25.2825 25.9615 24.75 25.9615H21.5357C21.0032 25.9615 20.5714 25.5256 20.5714 24.988V21.7428C20.5714 21.2051 21.0032 20.7692 21.5357 20.7692H24.75C25.2825 20.7692 25.7143 21.2051 25.7143 21.7428V24.988ZM25.7143 17.1995C25.7143 17.7372 25.2825 18.1731 24.75 18.1731H21.5357C21.0032 18.1731 20.5714 17.7372 20.5714 17.1995V13.9543C20.5714 13.4167 21.0032 12.9808 21.5357 12.9808H24.75C25.2825 12.9808 25.7143 13.4167 25.7143 13.9543V17.1995ZM25.7143 9.41106C25.7143 9.9487 25.2825 10.3846 24.75 10.3846H21.5357C21.0032 10.3846 20.5714 9.9487 20.5714 9.41106V6.16587C20.5714 5.62822 21.0032 5.19231 21.5357 5.19231H24.75C25.2825 5.19231 25.7143 5.62822 25.7143 6.16587V9.41106Z" fill="white"/>
</g>
<defs>
<clipPath id="clip0_91_699">
<rect width="36" height="41.5385" fill="white"/>
</clipPath>
</defs>
</svg>
