<svg width="36" height="36" viewBox="0 0 36 36" fill="none" xmlns="http://www.w3.org/2000/svg">
<path d="M34.875 34.3125C34.875 34.3864 34.8605 34.4595 34.8323 34.5278C34.804 34.5961 34.7626 34.6581 34.7103 34.7103C34.6581 34.7626 34.5961 34.804 34.5278 34.8323C34.4595 34.8605 34.3864 34.875 34.3125 34.875H1.6875C1.61362 34.875 1.54046 34.8605 1.47219 34.8323C1.40393 34.804 1.3419 34.7626 1.28966 34.7103C1.23742 34.6581 1.19599 34.5961 1.16773 34.5278C1.13948 34.4595 1.12496 34.3864 1.125 34.3125V1.6875C1.125 1.53832 1.18426 1.39524 1.28975 1.28975C1.39524 1.18426 1.53832 1.125 1.6875 1.125C1.83668 1.125 1.97976 1.18426 2.08525 1.28975C2.19074 1.39524 2.25 1.53832 2.25 1.6875V33.75H34.3125C34.3864 33.75 34.4595 33.7645 34.5278 33.7927C34.5961 33.821 34.6581 33.8624 34.7103 33.9147C34.7626 33.9669 34.804 34.0289 34.8323 34.0972C34.8605 34.1655 34.875 34.2386 34.875 34.3125ZM10.125 23.0625C10.125 22.9133 10.0657 22.7702 9.96025 22.6648C9.85476 22.5593 9.71168 22.5 9.5625 22.5H5.0625C4.91332 22.5 4.77024 22.5593 4.66475 22.6648C4.55926 22.7702 4.5 22.9133 4.5 23.0625V32.625H10.125V23.0625ZM11.8125 16.875V32.625H17.4375V16.875C17.4375 16.7258 17.3782 16.5827 17.2727 16.4773C17.1673 16.3718 17.0242 16.3125 16.875 16.3125H12.375C12.2258 16.3125 12.0827 16.3718 11.9773 16.4773C11.8718 16.5827 11.8125 16.7258 11.8125 16.875ZM19.125 20.25V32.625H24.75V20.25C24.75 20.1008 24.6907 19.9577 24.5852 19.8523C24.4798 19.7468 24.3367 19.6875 24.1875 19.6875H19.6875C19.5383 19.6875 19.3952 19.7468 19.2898 19.8523C19.1843 19.9577 19.125 20.1008 19.125 20.25ZM31.5 12.375H27C26.8508 12.375 26.7077 12.4343 26.6023 12.5398C26.4968 12.6452 26.4375 12.7883 26.4375 12.9375V32.625H32.0625V12.9375C32.0625 12.7883 32.0032 12.6452 31.8977 12.5398C31.7923 12.4343 31.6492 12.375 31.5 12.375ZM19.6706 11.835L17.3644 10.7662C17.2768 11.1356 17.1161 11.4837 16.8919 11.79L19.1981 12.8588C19.2857 12.4894 19.4464 12.1413 19.6706 11.835ZM24.2887 11.9475L30.9375 5.29875V7.875C30.9375 8.02418 30.9968 8.16726 31.1023 8.27275C31.2077 8.37824 31.3508 8.4375 31.5 8.4375C31.6492 8.4375 31.7923 8.37824 31.8977 8.27275C32.0032 8.16726 32.0625 8.02418 32.0625 7.875V3.9375C32.0625 3.86362 32.048 3.79046 32.0198 3.72219C31.9915 3.65393 31.9501 3.5919 31.8978 3.53966C31.8456 3.48742 31.7836 3.44599 31.7153 3.41773C31.647 3.38948 31.5739 3.37496 31.5 3.375H27.5625C27.4133 3.375 27.2702 3.43426 27.1648 3.53975C27.0593 3.64524 27 3.78832 27 3.9375C27 4.08668 27.0593 4.22976 27.1648 4.33525C27.2702 4.44074 27.4133 4.5 27.5625 4.5H30.1388L23.49 11.1488C23.8045 11.362 24.0755 11.633 24.2887 11.9475ZM9.78187 14.9625L12.8869 12.3356C12.5892 12.0993 12.3408 11.8069 12.1556 11.475L9.05062 14.1019C9.34828 14.3382 9.59672 14.6306 9.78187 14.9625ZM7.3125 18C7.64626 18 7.97252 17.901 8.25002 17.7156C8.52753 17.5302 8.74382 17.2666 8.87155 16.9583C8.99927 16.6499 9.03269 16.3106 8.96758 15.9833C8.90246 15.6559 8.74174 15.3553 8.50574 15.1193C8.26974 14.8833 7.96906 14.7225 7.64172 14.6574C7.31437 14.5923 6.97507 14.6257 6.66672 14.7535C6.35837 14.8812 6.09482 15.0975 5.9094 15.375C5.72397 15.6525 5.625 15.9787 5.625 16.3125C5.62549 16.7599 5.80343 17.1888 6.1198 17.5052C6.43616 17.8216 6.8651 17.9995 7.3125 18ZM21.9375 15.1875C22.2713 15.1875 22.5975 15.0885 22.875 14.9031C23.1525 14.7177 23.3688 14.4541 23.4965 14.1458C23.6243 13.8374 23.6577 13.4981 23.5926 13.1708C23.5275 12.8434 23.3667 12.5428 23.1307 12.3068C22.8947 12.0708 22.5941 11.91 22.2667 11.8449C21.9394 11.7798 21.6001 11.8132 21.2917 11.941C20.9834 12.0687 20.7198 12.285 20.5344 12.5625C20.349 12.84 20.25 13.1662 20.25 13.5C20.2505 13.9474 20.4284 14.3763 20.7448 14.6927C21.0612 15.0091 21.4901 15.187 21.9375 15.1875ZM14.625 11.8125C14.9588 11.8125 15.285 11.7135 15.5625 11.5281C15.84 11.3427 16.0563 11.0791 16.184 10.7708C16.3118 10.4624 16.3452 10.1231 16.2801 9.79578C16.215 9.46844 16.0542 9.16776 15.8182 8.93176C15.5822 8.69576 15.2816 8.53504 14.9542 8.46992C14.6269 8.40481 14.2876 8.43823 13.9792 8.56595C13.6709 8.69368 13.4073 8.90997 13.2219 9.18748C13.0365 9.46498 12.9375 9.79124 12.9375 10.125C12.938 10.5724 13.1159 11.0013 13.4323 11.3177C13.7487 11.6341 14.1776 11.812 14.625 11.8125Z" fill="white"/>
</svg>
