<svg width="467" height="225" viewBox="0 0 467 225" fill="none" xmlns="http://www.w3.org/2000/svg">
<g clip-path="url(#clip0_69_489)">
<path d="M4.50486 152.876L100.213 222.866C102.695 224.679 105.844 225.39 108.878 224.793L421.743 162.675C425.858 161.849 429.144 158.797 430.225 154.758L466.586 21.1346C468.839 12.8735 461.185 5.32382 452.933 7.66446L8.02149 133.394C-0.804572 135.895 -2.89617 147.438 4.50486 152.876Z" fill="#F4B72A"/>
<path d="M447.532 122.356L425.306 67.3049C422.939 61.4304 416.503 58.1948 410.366 59.8241L388.301 65.6298C384.164 66.7083 380.9 69.7833 379.544 73.845L375.682 85.3875C373.66 82.9322 371.177 80.9357 368.304 79.3982C371.177 78.2738 373.568 76.1168 374.97 73.3172C376.602 70.0816 376.74 66.2952 375.384 62.9449L353.158 7.89392C350.767 1.99642 344.354 -1.21623 338.218 0.413043L316.152 6.21875C312.015 7.29729 308.751 10.3722 307.395 14.4339L305.763 19.2988C304.913 17.6236 303.718 16.155 302.201 14.9847C299.121 12.6211 295.03 11.795 291.26 12.7817L272.137 17.8072C267.54 19.0234 264.092 22.6721 263.058 27.1469C261.265 26.4355 259.404 25.8618 257.427 25.4258C251.336 24.1407 244.602 24.439 237.407 26.3437C230.788 28.0877 224.789 30.8873 219.502 34.6736V22.3279C219.502 17.6236 216.905 13.3325 212.745 11.1525C208.585 8.97245 203.574 9.27077 199.69 11.9327L177.372 27.2845C173.947 29.6481 171.901 33.5262 171.901 37.6797V50.1173C171.649 49.8878 171.419 49.6813 171.143 49.4977C168.017 47.0882 164.041 46.285 160.202 47.2947L141.079 52.3202C140.137 52.5726 139.24 52.9169 138.367 53.3988C137.379 53.3988 136.459 53.5364 135.563 53.7889L94.9032 64.5053C89.8696 65.8363 86.2151 70.1045 85.5715 75.153C84.2154 74.5793 82.8134 74.0974 81.3423 73.7073C74.401 71.8026 66.5633 71.9633 58.013 74.2121L32.5921 80.9128C27.0528 82.3814 23.1685 87.384 23.1685 93.1208V154.023C23.1685 157.902 25.0072 161.642 28.0872 164.029C30.2937 165.727 33.0288 166.645 35.81 166.645C36.8902 166.645 37.9935 166.507 39.0278 166.231L64.4487 159.531C71.1602 157.764 77.2741 154.941 82.6984 151.155C81.9859 152.738 81.5722 154.459 81.5722 156.272V193.332C81.5722 197.211 83.411 200.951 86.4909 203.338C88.6974 205.036 91.4326 205.954 94.2137 205.954C95.294 205.954 96.3972 205.816 97.4315 205.54L112.9 201.456C118.531 199.964 123.588 197.417 127.909 193.883C128.254 193.585 128.622 193.287 128.966 192.988C131.885 194.87 135.609 195.49 139.034 194.572L151.261 191.359C154.226 190.579 156.778 188.72 158.478 186.242C161.168 187.573 164.271 187.917 167.305 187.137L175.372 185.003V192.346C175.372 196.224 177.211 199.964 180.291 202.351C183.348 204.714 187.508 205.54 191.231 204.554L210.355 199.505C213.917 198.564 216.767 196.178 218.376 193.057C221.341 195.008 225.088 195.627 228.535 194.709L247.659 189.684C252.761 188.33 256.416 183.97 256.967 178.807C262.828 182.042 269.54 183.74 276.504 183.74C279.032 183.74 281.607 183.511 284.204 183.075C294.455 181.262 303.741 176.168 311.004 169.054C312.958 170.224 315.21 170.89 317.486 170.89C318.566 170.89 319.669 170.752 320.703 170.477L339.827 165.451C341.849 164.923 343.711 163.891 345.205 162.491C347.228 162.973 349.319 162.95 351.365 162.422L392.461 151.591C396.69 150.49 400.092 147.185 401.333 143.032L402.299 139.796L404.85 139.131C407.723 143.766 413.308 146.107 418.801 144.661L438.959 139.36C442.476 138.442 445.418 136.056 447.027 132.82C448.658 129.584 448.796 125.798 447.44 122.448L447.532 122.356Z" fill="#3D1E15"/>
<path d="M443.257 124.077L421.031 69.026C419.514 65.2626 415.446 63.2203 411.515 64.2529L389.45 70.0586C386.83 70.7471 384.738 72.7206 383.865 75.2907L376.418 97.5497C375.774 94.6583 374.694 91.9735 373.085 89.6558C370.212 85.4793 365.845 82.6109 360.421 81.3259C355.64 80.2014 350.055 80.4539 343.849 82.0831L315.417 89.564C311.877 90.5048 309.418 93.6716 309.418 97.3202V108.909C309.418 108.909 309.234 108.863 309.119 108.84C308.728 108.243 308.269 107.67 307.694 107.211C307.005 106.66 306.246 106.247 305.442 105.994C304.798 104.296 303.557 102.896 301.879 102.139C295.489 99.2478 288.18 98.3988 280.756 99.7068C269.471 101.703 259.358 108.473 252.416 117.56V116.573C252.416 114.072 251.267 111.731 249.29 110.217C247.314 108.702 244.739 108.174 242.326 108.817L223.203 113.842C219.663 114.783 217.204 117.95 217.204 121.599V137.341L215.112 137.891V126.395C215.112 123.893 213.963 121.553 211.987 120.038C210.01 118.524 207.436 117.996 205.022 118.638L185.899 123.687C182.359 124.628 179.9 127.794 179.9 131.443V159.21L170.201 135.184C168.684 131.42 164.592 129.378 160.685 130.411L147.262 133.944C144.642 134.633 142.55 136.606 141.677 139.176L135.632 157.236C135.034 155.423 134.276 153.725 133.241 152.188C130.598 148.195 126.691 145.395 121.91 144.11C117.612 142.94 112.785 143.032 107.545 144.408L92.0761 148.493C88.5365 149.434 86.0771 152.624 86.0771 156.249V193.31C86.0771 195.811 87.2264 198.151 89.203 199.666C90.6281 200.767 92.3519 201.341 94.1217 201.341C94.8113 201.341 95.5008 201.249 96.1674 201.066L111.636 196.981C116.624 195.673 121.083 193.424 124.898 190.303C126.346 189.11 127.633 187.825 128.828 186.471C129.127 186.953 129.449 187.412 129.84 187.848C131.38 189.477 133.517 190.395 135.701 190.395C136.39 190.395 137.08 190.303 137.746 190.12L149.974 186.907C152.686 186.196 154.824 184.131 155.628 181.446L156.157 179.656L157.283 179.357C159.145 182.157 162.639 183.557 166.017 182.662L178.291 179.426C178.843 179.289 179.371 179.082 179.877 178.83V192.3C179.877 194.801 181.026 197.142 183.003 198.656C184.428 199.758 186.152 200.331 187.922 200.331C188.611 200.331 189.301 200.24 189.967 200.056L209.09 195.008C212.63 194.067 215.089 190.9 215.089 187.251V169.697L217.181 169.146V182.455C217.181 184.957 218.33 187.297 220.307 188.812C222.284 190.326 224.858 190.854 227.271 190.212L246.394 185.186C249.934 184.245 252.393 181.079 252.393 177.43V168.228C253.106 168.939 253.841 169.651 254.623 170.316C260.645 175.365 268.138 177.981 276.251 177.981C278.504 177.981 280.802 177.774 283.124 177.361C293.651 175.502 303.189 169.49 310.039 161.321C310.567 162.583 311.395 163.707 312.498 164.556C313.923 165.658 315.647 166.232 317.417 166.232C318.106 166.232 318.796 166.14 319.462 165.956L338.585 160.908C340.838 160.311 342.654 158.797 343.688 156.823C345.55 158.039 347.894 158.452 350.147 157.856L371.177 152.325L391.243 147.047C393.955 146.336 396.093 144.271 396.897 141.586L398.621 135.895L407.47 133.577L407.999 135.046C409.401 138.97 413.584 141.173 417.629 140.094L437.787 134.793C440.016 134.197 441.901 132.682 442.935 130.617C443.97 128.552 444.061 126.142 443.211 124.008L443.257 124.077Z" fill="white"/>
<path d="M90.1456 138.075C90.2835 140.393 91.3868 142.55 93.2255 143.972C94.6506 145.074 96.3744 145.648 98.1442 145.648C98.8338 145.648 99.5233 145.556 100.19 145.372L140.85 134.656C141.815 134.403 142.688 133.967 143.47 133.394C143.746 133.417 144.021 133.463 144.297 133.463C144.987 133.463 145.676 133.371 146.343 133.187L183.9 123.297C184.635 123.09 185.325 122.792 185.945 122.402C186.014 122.402 186.083 122.402 186.152 122.402C186.842 122.402 187.531 122.31 188.198 122.126L207.321 117.078C210.86 116.137 213.32 112.947 213.32 109.322V103.746C215.871 105.811 218.836 107.371 222.169 108.427C225.042 109.322 228.145 109.781 231.432 109.781C234.948 109.781 238.695 109.253 242.648 108.22C248.9 106.568 254.577 103.883 259.565 100.212C262.553 98.0087 265.173 95.4845 267.517 92.7537C267.931 94.5207 268.965 96.127 270.436 97.2514C271.861 98.3529 273.585 98.9266 275.355 98.9266C276.045 98.9266 276.734 98.8348 277.401 98.6512L296.524 93.6028C296.984 93.488 297.397 93.3274 297.811 93.1438C298.248 93.0979 298.684 93.0291 299.098 92.9373L319.164 87.6594C321.876 86.948 324.013 84.8827 324.818 82.1979L326.542 76.5069L335.391 74.1892L335.919 75.6578C337.321 79.5819 341.505 81.7848 345.55 80.7063L365.707 75.4054C367.937 74.8088 369.822 73.2943 370.856 71.229C371.89 69.1637 371.982 66.7542 371.132 64.6201L348.906 9.5691C347.389 5.80571 343.32 3.76339 339.39 4.79602L317.348 10.6017C314.728 11.2902 312.636 13.2636 311.763 15.8338L302.546 43.4166V24.9898C302.546 22.4885 301.397 20.1479 299.42 18.6334C297.443 17.1188 294.869 16.591 292.456 17.2336L273.332 22.282C269.793 23.2228 267.333 26.4125 267.333 30.0382V34.8113C264.231 32.4707 260.622 30.8185 256.485 29.9465C251.106 28.822 245.084 29.0974 238.603 30.7955C231.317 32.7231 224.881 35.9816 219.457 40.5482C217.135 42.4987 215.09 44.6558 213.205 46.9505C212.929 45.5278 212.286 44.2198 211.32 43.1413C213.573 41.6497 214.929 39.1484 214.929 36.4406V22.3279C214.929 19.3447 213.274 16.614 210.631 15.2142C207.987 13.8373 204.793 14.0209 202.333 15.719L180.015 31.0479C177.832 32.5395 176.545 35.0179 176.545 37.6568V50.3927C176.545 52.1826 177.142 53.8577 178.176 55.2346V93.7404L171.511 95.4845V59.4569C171.511 56.9556 170.362 54.615 168.385 53.1005C166.408 51.5859 163.857 51.0581 161.421 51.7007L142.298 56.7262C141.309 56.9786 140.436 57.4375 139.631 58.0112C138.689 57.9194 137.724 57.9424 136.781 58.1948L96.1216 68.9113C92.582 69.8521 90.1226 73.0418 90.1226 76.6675V83.0469C87.2725 80.7981 83.9628 79.1229 80.1703 78.0903C74.0105 76.3922 66.9772 76.5757 59.2314 78.6181L33.8105 85.3187C30.2709 86.2596 27.8115 89.4493 27.8115 93.075V153.978C27.8115 156.479 28.9607 158.82 30.9374 160.334C32.3625 161.436 34.0863 162.009 35.8561 162.009C36.5457 162.009 37.2352 161.917 37.9017 161.734L63.3226 155.033C70.7926 153.06 77.4581 149.709 83.1353 145.074C85.7556 142.917 88.077 140.553 90.1686 138.029L90.1456 138.075ZM239.43 66.2494C240.212 65.0332 241.085 64.3906 242.349 64.0464C242.625 63.9776 242.832 63.9317 242.97 63.9317C243.705 65.2626 244.763 66.3412 246.027 67.0525C244.487 67.9245 243.269 69.3014 242.579 70.9766C242.096 72.1469 241.476 73.0648 240.648 73.845C239.913 74.5105 239.154 74.9465 238.235 75.1759C238.097 74.6711 237.913 73.7761 237.913 72.3534C237.913 69.8292 238.419 67.8327 239.43 66.2494Z" fill="white"/>
<path d="M244.464 116.573V177.476L225.341 182.501V158.774L207.16 163.57V187.297L188.037 192.346V131.443L207.16 126.395V148.332L225.341 143.536V121.599L244.464 116.573Z" fill="#DE1318" stroke="#E63224" stroke-linecap="round" stroke-linejoin="round"/>
<path d="M348.193 150.145L336.724 131.305H336.632V153.174L317.509 158.223V97.3202L345.941 89.8394C350.882 88.5314 355.112 88.3019 358.605 89.128C362.099 89.9541 364.742 91.6522 366.489 94.1994C368.236 96.7466 369.109 99.9133 369.109 103.7C369.109 107.761 367.983 111.685 365.707 115.426C363.432 119.189 360.191 122.31 355.939 124.788L369.201 144.592L348.17 150.122L348.193 150.145ZM336.655 118.615L344.24 116.619C346.079 116.137 347.458 115.357 348.377 114.278C349.296 113.2 349.756 111.777 349.756 110.01C349.756 108.404 349.273 107.256 348.331 106.591C347.389 105.926 346.01 105.834 344.24 106.293L336.655 108.289V118.615Z" fill="#DE1318" stroke="#E63224" stroke-linecap="round" stroke-linejoin="round"/>
<path d="M412.641 123.962L392.3 129.309L389.289 139.314L369.224 144.592L391.542 77.8149L413.607 72.0092L435.833 127.06L415.675 132.361L412.664 123.962H412.641ZM407.999 110.813L402.482 95.3238L396.966 113.728L407.999 110.813Z" fill="#DE1318" stroke="#E63224" stroke-linecap="round" stroke-linejoin="round"/>
<path d="M119.911 151.843C122.83 152.647 125.082 154.23 126.645 156.617C128.208 159.003 129.012 161.963 129.012 165.52C129.012 169.077 128.231 172.427 126.645 175.663C125.082 178.899 122.83 181.721 119.911 184.108C116.992 186.494 113.59 188.215 109.705 189.225L94.2368 193.31V156.249L109.705 152.165C113.59 151.132 116.992 151.04 119.911 151.843ZM114.9 175.365C116.44 173.529 117.198 171.28 117.198 168.641C117.198 166.002 116.417 164.143 114.9 163.134C113.36 162.101 111.268 161.94 108.648 162.629L105.867 163.363V179.908L108.648 179.174C111.268 178.485 113.36 177.223 114.9 175.388V175.365Z" fill="#DE1318" stroke="#E63224" stroke-width="0.61" stroke-linecap="round" stroke-linejoin="round"/>
<path d="M162.248 169.788L149.882 173.047L148.044 179.128L135.816 182.341L149.4 141.701L162.823 138.167L176.361 171.67L164.087 174.906L162.248 169.788ZM159.421 161.78L156.065 152.348L152.71 163.547L159.421 161.78Z" fill="#DE1318" stroke="#E63224" stroke-width="0.61" stroke-linecap="round" stroke-linejoin="round"/>
<path d="M78.0096 85.8695C82.8134 87.1775 86.4909 89.7935 89.0882 93.7175C91.6625 97.6186 92.9726 102.506 92.9726 108.358C92.9726 114.21 91.6854 119.717 89.0882 125.041C86.5139 130.365 82.8134 135 78.0096 138.924C73.2059 142.848 67.6206 145.648 61.2539 147.346L35.833 154.046V93.1438L61.2539 86.4432C67.6206 84.768 73.2059 84.5844 78.0096 85.8924V85.8695ZM69.7812 124.513C72.3095 121.507 73.5736 117.812 73.5736 113.452C73.5736 109.092 72.3095 106.063 69.7812 104.388C67.2529 102.713 63.8282 102.438 59.5301 103.562L54.9561 104.755V131.925L59.5301 130.732C63.8282 129.607 67.2529 127.519 69.7812 124.513Z" fill="#3D1E15" stroke="#3D1E15" stroke-linecap="round" stroke-linejoin="round"/>
<path d="M117.267 86.8792V94.36L136.229 89.3575V103.723L117.267 108.725V117.33L138.804 111.662V126.877L98.144 137.593V76.6905L138.804 65.974V81.1882L117.267 86.8562V86.8792Z" fill="#3D1E15" stroke="#3D1E15" stroke-linecap="round" stroke-linejoin="round"/>
<path d="M163.443 105.948L181.877 101.084V115.541L144.32 125.431V64.5283L163.443 59.5028V105.948Z" fill="#3D1E15" stroke="#3D1E15" stroke-linecap="round" stroke-linejoin="round"/>
<path d="M206.861 36.4636L184.543 50.4156V37.6798L206.861 22.3509V36.4636ZM205.298 48.488V109.391L186.175 114.439V53.5135L205.298 48.4651V48.488Z" fill="#3D1E15" stroke="#3D1E15" stroke-linecap="round" stroke-linejoin="round"/>
<path d="M214.147 60.4207C216.584 55.074 220.077 50.5074 224.605 46.6981C229.133 42.8889 234.489 40.1811 240.625 38.5747C245.912 37.1749 250.624 36.9225 254.807 37.8175C258.967 38.6895 262.369 40.5941 264.966 43.5314C267.586 46.4457 269.31 50.2091 270.184 54.7986L250.026 60.0995C249.107 58.3325 247.797 57.1163 246.096 56.4508C244.395 55.7853 242.464 55.7394 240.281 56.3131C237.063 57.1622 234.535 59.0439 232.65 61.9353C230.788 64.8266 229.846 68.3147 229.846 72.3993C229.846 76.484 230.788 79.4671 232.65 81.3947C234.512 83.2994 237.063 83.8501 240.281 83.001C242.464 82.4273 244.395 81.3488 246.096 79.7884C247.797 78.228 249.107 76.3233 250.026 74.0745L270.184 68.7736C269.333 73.822 267.586 78.4804 264.966 82.7945C262.346 87.0857 258.967 90.7802 254.807 93.8552C250.647 96.9302 245.912 99.1561 240.625 100.556C234.489 102.185 229.133 102.277 224.605 100.854C220.077 99.4314 216.584 96.7007 214.147 92.639C211.711 88.5773 210.493 83.5288 210.493 77.5166C210.493 71.5043 211.711 65.8134 214.147 60.4666V60.4207Z" fill="#3D1E15" stroke="#3D1E15" stroke-linecap="round" stroke-linejoin="round"/>
<path d="M294.478 24.9898V85.8924L275.355 90.9409V30.0153L294.478 24.9669V24.9898Z" fill="#3D1E15" stroke="#3D1E15" stroke-linecap="round" stroke-linejoin="round"/>
<path d="M340.47 64.5742L320.129 69.921L317.118 79.9261L297.052 85.204L319.37 18.4268L341.412 12.6211L363.638 67.6721L343.481 72.973L340.47 64.5742ZM335.827 51.4253L330.311 35.9358L324.795 54.3396L335.827 51.4253Z" fill="#3D1E15" stroke="#3D1E15" stroke-linecap="round" stroke-linejoin="round"/>
<path d="M283.997 130.892C281.745 130.824 279.285 131.925 277.584 134.013C274.918 137.249 275.01 141.609 277.791 143.789C280.549 145.946 284.962 145.097 287.606 141.861C289.33 139.773 289.881 137.203 289.33 135.069L303.396 112.557L283.997 130.892Z" fill="#3D1E15"/>
<path d="M308.384 115.655C308.384 115.655 295.558 132.132 295.558 132.155C295.949 133.371 296.156 134.679 296.156 136.079C296.156 143.858 289.812 151.316 282.021 152.67C274.229 154.023 267.885 148.837 267.885 141.058C267.885 133.279 274.229 125.821 282.021 124.467C283.009 124.284 283.974 124.215 284.917 124.261L299.075 108.427C294.133 106.178 288.272 105.398 282.021 106.499C264.322 109.62 249.911 126.532 249.911 144.202C249.911 161.871 264.322 173.735 282.021 170.614C299.719 167.494 314.13 150.581 314.13 132.912C314.13 126.119 311.992 120.222 308.384 115.655Z" fill="#3D1E15"/>
<path d="M62.8398 110.217V120.773C62.8398 120.773 66.3105 118.409 66.4024 113.521C66.4944 108.633 62.8398 110.217 62.8398 110.217Z" fill="#3D1E15"/>
</g>
<defs>
<clipPath id="clip0_69_489">
<rect width="467" height="225" fill="white"/>
</clipPath>
</defs>
</svg>
