<svg width="36" height="27" viewBox="0 0 36 27" fill="none" xmlns="http://www.w3.org/2000/svg">
<g clip-path="url(#clip0_91_704)">
<path d="M2.35382 13.8312V25.2567C2.35382 25.7422 2.74751 26.1355 3.23273 26.1355C3.71796 26.1355 4.11156 25.7422 4.11156 25.2567V18.8399H4.44108V25.2567C4.44108 25.7422 4.83468 26.1355 5.3199 26.1355C5.80532 26.1355 6.19871 25.7422 6.19871 25.2567V13.8311C6.48164 13.6835 6.86857 13.4206 7.24813 12.9663C7.43983 12.7375 7.62594 12.4604 7.79555 12.1319V11.556C7.57688 11.4236 7.31868 11.2379 7.05006 10.9863C6.85513 11.5577 6.6081 11.9568 6.3753 12.2372C6.12946 12.5312 5.89273 12.6994 5.72546 12.7943C5.65159 12.8364 5.59213 12.863 5.55133 12.8795H3.0017C2.85169 12.8187 2.4429 12.618 2.04156 12.0619C1.59508 11.4399 1.13881 10.3509 1.13753 8.42341C1.13733 8.36044 1.13792 8.29755 1.13881 8.23495C1.14439 7.92088 0.894421 7.66188 0.580297 7.65634C0.266263 7.6507 0.00727097 7.90096 0.00177589 8.21499C0.000399607 8.28612 7.81885e-06 8.35568 7.81885e-06 8.42341C-0.00254383 10.7399 0.619827 12.1492 1.3045 12.9663C1.68396 13.4207 2.07118 13.6836 2.35382 13.8312Z" fill="white"/>
<path d="M4.27647 12.4744C5.15989 12.4744 5.87576 11.7584 5.87576 10.8751C5.87576 9.99169 5.15989 9.27563 4.27647 9.27563C3.39314 9.27563 2.67708 9.99169 2.67708 10.8751C2.67708 11.7584 3.39314 12.4744 4.27647 12.4744Z" fill="white"/>
<path d="M8.19729 11.3215V25.0775C8.19729 25.662 8.67113 26.1355 9.25524 26.1355C9.83975 26.1355 10.3136 25.662 10.3136 25.0775V17.3518H10.7101V25.0775C10.7101 25.662 11.184 26.1355 11.7683 26.1355C12.3528 26.1355 12.8264 25.662 12.8264 25.0775V11.3215C13.1671 11.1438 13.6328 10.8273 14.0898 10.2802C14.2226 10.1218 14.3534 9.94456 14.4795 9.74752V9.18474C14.2166 9.01247 13.9191 8.78256 13.6142 8.48457C13.4315 8.8715 13.2311 9.17077 13.0387 9.40238C12.7428 9.75644 12.4581 9.95898 12.2566 10.0732C12.1676 10.1238 12.0961 10.1559 12.0469 10.1758H8.97721C8.7967 10.1026 8.30442 9.86083 7.82116 9.19136C7.28374 8.44253 6.73456 7.13138 6.73279 4.81087C6.7326 4.73504 6.73338 4.6593 6.73456 4.58391C6.74123 4.20576 6.44005 3.89399 6.06215 3.88732C5.68386 3.88055 5.37209 4.18178 5.36562 4.55987C5.36385 4.64552 5.36346 4.72925 5.36346 4.81087C5.36031 7.59983 6.10963 9.29653 6.93391 10.2802C7.39087 10.8273 7.85687 11.1439 8.19729 11.3215Z" fill="white"/>
<path d="M10.8207 9.66319C11.8705 9.49282 12.5833 8.50372 12.413 7.45396C12.2426 6.40421 11.2535 5.69132 10.2037 5.86169C9.154 6.03206 8.44112 7.02116 8.61149 8.07092C8.78186 9.12067 9.77096 9.83356 10.8207 9.66319Z" fill="white"/>
<path d="M30.4487 12.8795C30.4079 12.863 30.3484 12.8364 30.2745 12.7943C30.1073 12.6994 29.8705 12.5312 29.6247 12.2372C29.3919 11.9568 29.1449 11.5578 28.95 10.9865C28.6814 11.2379 28.4232 11.4236 28.2046 11.556V12.1323C28.3742 12.4606 28.5603 12.7376 28.7519 12.9663C29.1314 13.4206 29.5184 13.6835 29.8013 13.8311V25.2567C29.8013 25.7422 30.1947 26.1355 30.6801 26.1355C31.1653 26.1355 31.5589 25.7422 31.5589 25.2567V18.8399H31.8884V25.2567C31.8884 25.7422 32.282 26.1355 32.7673 26.1355C33.2525 26.1355 33.6462 25.7422 33.6462 25.2567V13.8312C33.9288 13.6836 34.316 13.4207 34.6955 12.9663C35.3802 12.1492 36.0025 10.7399 36 8.42341C36 8.35568 35.9996 8.28612 35.9982 8.21499C35.9927 7.90096 35.7337 7.6507 35.4197 7.65634C35.1056 7.66188 34.8556 7.92088 34.8612 8.23495C34.8621 8.29755 34.8627 8.36044 34.8625 8.42341C34.8612 10.3509 34.4049 11.4399 33.9584 12.0619C33.5571 12.618 33.1483 12.8187 32.9983 12.8795H30.4487V12.8795Z" fill="white"/>
<path d="M30.1242 10.8751C30.1242 11.7584 30.8401 12.4744 31.7235 12.4744C32.6069 12.4744 33.3229 11.7584 33.3229 10.8751C33.3229 9.99169 32.6069 9.27563 31.7235 9.27563C30.8401 9.27563 30.1242 9.99169 30.1242 10.8751Z" fill="white"/>
<path d="M23.9531 10.1758C23.9039 10.1559 23.8324 10.1238 23.7434 10.0732C23.5419 9.95898 23.2572 9.75644 22.9613 9.40238C22.7689 9.17072 22.5684 8.8714 22.3857 8.48437C22.081 8.78212 21.7835 9.01222 21.5206 9.18474V9.74766C21.6467 9.94461 21.7774 10.1218 21.9102 10.2802C22.3671 10.8273 22.8329 11.1438 23.1736 11.3215V25.0775C23.1736 25.662 23.6472 26.1355 24.2317 26.1355C24.816 26.1355 25.2899 25.662 25.2899 25.0775V17.3518H25.6864V25.0775C25.6864 25.662 26.1602 26.1355 26.7448 26.1355C27.3289 26.1355 27.8027 25.662 27.8027 25.0775V11.3215C28.1431 11.1439 28.6091 10.8273 29.0661 10.2802C29.8904 9.29653 30.6397 7.59983 30.6365 4.81087C30.6365 4.72925 30.6361 4.64552 30.6344 4.55987C30.6279 4.18178 30.3161 3.88055 29.9378 3.88732C29.5599 3.89399 29.2588 4.20576 29.2654 4.58391C29.2666 4.6593 29.2674 4.73504 29.2672 4.81087C29.2654 7.13138 28.7163 8.44253 28.1788 9.19136C27.6956 9.86083 27.2033 10.1026 27.0228 10.1758H23.9531Z" fill="white"/>
<path d="M25.488 9.68834C26.5515 9.68834 27.4136 8.82622 27.4136 7.76275C27.4136 6.69927 26.5515 5.83716 25.488 5.83716C24.4246 5.83716 23.5624 6.69927 23.5624 7.76275C23.5624 8.82622 24.4246 9.68834 25.488 9.68834Z" fill="white"/>
<path d="M15.2831 8.72672V24.8738C15.2831 25.5599 15.8393 26.1158 16.5251 26.1158C17.211 26.1158 17.7672 25.5599 17.7672 24.8738V15.8052H18.2329V24.8738C18.2329 25.5599 18.7891 26.1158 19.4749 26.1158C20.1608 26.1158 20.717 25.5599 20.717 24.8738V8.72662C21.1167 8.51805 21.6636 8.14653 22.2 7.50439C23.1677 6.3498 24.0473 4.35805 24.0434 1.08426C24.0432 0.986798 24.0424 0.889816 24.0412 0.793827C24.0357 0.349851 23.6713 -0.00548128 23.2275 6.40318e-05C22.7839 0.00560934 22.4286 0.369912 22.4341 0.813688C22.435 0.906642 22.436 0.997095 22.436 1.08426C22.4321 4.08438 21.6549 5.64478 20.9662 6.47396C20.6189 6.88952 20.2846 7.12723 20.048 7.26138C19.9436 7.32078 19.8598 7.35841 19.8019 7.38181H16.1986C15.9867 7.29587 15.409 7.0121 14.8418 6.22624C14.2108 5.34727 13.566 3.80822 13.5641 1.08431C13.5639 0.995227 13.5647 0.906401 13.566 0.817857C13.5739 0.373991 13.2205 0.0080103 12.7767 0.000264949C12.3329 -0.00773155 11.967 0.345832 11.9591 0.789658C11.9571 0.890207 11.9566 0.988516 11.9566 1.08431C11.9528 4.35805 12.8324 6.3497 13.8001 7.50434C14.3366 8.14658 14.8834 8.51815 15.2831 8.72672Z" fill="white"/>
<path d="M18.0001 6.80945C19.2485 6.80945 20.2605 5.79748 20.2605 4.54914C20.2605 3.3008 19.2485 2.28882 18.0001 2.28882C16.7518 2.28882 15.7398 3.3008 15.7398 4.54914C15.7398 5.79748 16.7518 6.80945 18.0001 6.80945Z" fill="white"/>
</g>
<defs>
<clipPath id="clip0_91_704">
<rect width="36" height="26.1356" fill="white"/>
</clipPath>
</defs>
</svg>
