<svg width="36" height="36" viewBox="0 0 36 36" fill="none" xmlns="http://www.w3.org/2000/svg">
<path d="M18 2.25C10.575 2.25 4.5 8.2125 4.5 15.6375V19.575C4.5 19.6875 4.5 19.6875 4.5 19.8C4.5 19.9125 4.5 20.1375 4.5 20.25C4.5 23.4 6.975 25.875 10.125 25.875C10.8 25.875 11.25 25.425 11.25 24.75V15.75C11.25 15.075 10.8 14.625 10.125 14.625C8.8875 14.625 7.65 15.075 6.75 15.75V15.525C6.75 9.45 11.8125 4.5 18 4.5C24.1875 4.5 29.25 9.45 29.25 15.6375V15.75C28.35 15.075 27.1125 14.625 25.875 14.625C25.2 14.625 24.75 15.075 24.75 15.75V24.75C24.75 25.425 25.2 25.875 25.875 25.875C26.6625 25.875 27.45 25.65 28.125 25.425C27 27.7875 24.975 29.5875 22.5 30.6C22.5 30.4875 22.5 30.4875 22.5 30.375C22.5 29.7 22.05 29.25 21.375 29.25H18C17.325 29.25 16.875 29.7 16.875 30.375V32.625C16.875 33.3 17.325 33.75 18 33.75C25.425 33.75 31.5 27.9 31.5 20.7V19.575V16.875V15.6375C31.5 8.2125 25.425 2.25 18 2.25Z" fill="white"/>
</svg>
